<svg xmlns="http://www.w3.org/2000/svg" viewBox="0 0 193.05 10.45"><defs><style>.cls-1{fill:#a56799;stroke:#a56799;stroke-miterlimit:10;}</style></defs><g id="Calque_2" data-name="Calque 2"><g id="Calque_1-2" data-name="Calque 1"><g id="Calque_2-2" data-name="Calque 2"><g id="Calque_1-2-2" data-name="Calque 1-2"><g id="Calque_2-2-2" data-name="Calque 2-2"><g id="Calque_1-2-2-2" data-name="Calque 1-2-2"><path class="cls-1" d="M0,5.22c10.5-.68,20.87-1.8,31-3.35,2.74-.42,5.4-.88,8-1.35a31.71,31.71,0,0,0,9,2.72c4.32.64,5.82,0,13,0,5.88,0,6.25.45,14,.67,4,.11,8,.11,12,0h70l36,1.36-35,.67q-20.82-.27-43,0-14.76.16-29,.65c-4.63.39-9.31.62-14,.68-8.15.1-11.23-.35-17,0A78.05,78.05,0,0,0,39,9.93q-3.9-.7-8-1.36C20.91,7,10.54,5.88,0,5.22Z"/></g></g></g></g></g></g></svg>