<svg xmlns="http://www.w3.org/2000/svg" viewBox="0 0 177.01 8.01"><defs><style>.cls-1{fill:#c67412;stroke:#c67412;stroke-miterlimit:10;}</style></defs><g id="Calque_2" data-name="Calque 2"><g id="Calque_1-2" data-name="Calque 1"><path class="cls-1" d="M.5,3c0-.08,31.65.62,72,0,14.67-.22,31.58-.64,51-1.5,8.11-.36,14.95-.71,20-1,3.76.88,8.1,1.75,13,2.5a192,192,0,0,0,20,2,150.51,150.51,0,0,0-20,.5,111.32,111.32,0,0,0-13,2c-5.32-.25-12.9-.6-22-1-18.06-.79-37.54-1.57-49-2C32,3,.5,3.09.5,3Z"/></g></g></svg>