<?xml version="1.0" encoding="utf-8"?>
<!-- Generator: Adobe Illustrator 24.1.0, SVG Export Plug-In . SVG Version: 6.00 Build 0)  -->
<svg version="1.1" id="Calque_1" xmlns="http://www.w3.org/2000/svg" xmlns:xlink="http://www.w3.org/1999/xlink" x="0px" y="0px"
	 viewBox="0 0 193.1 9.5" style="enable-background:new 0 0 193.1 9.5;" xml:space="preserve">
<style type="text/css">
	.st0{fill:#C67412;stroke:#C67412;stroke-miterlimit:10;}
</style>
<g id="Calque_2_1_">
	<g id="Calque_1-2">
		<path class="st0" d="M0,4.8c9.7-0.6,20.1-1.5,31-3c2.7-0.4,5.4-0.8,8-1.2c2.9,1.2,5.9,2,9,2.4c4.3,0.6,5.8,0,13,0
			c5.9,0,6.2,0.4,14,0.6c5.3,0.1,9,0,12,0c1.7,0,0.2,0,29.2,0H157l36,1.2l-35,0.6c-13.9-0.2-28.2-0.2-43,0C105.1,5.5,95.5,5.7,86,6
			c-3.1,0.2-8,0.5-14,0.6c-8.2,0.1-11.2-0.3-17,0C49.6,6.9,44.2,7.7,39,9c-2.6-0.4-5.3-0.8-8-1.2C20.1,6.3,9.7,5.3,0,4.8z"/>
	</g>
</g>
</svg>
