<svg xmlns="http://www.w3.org/2000/svg" viewBox="0 0 177.03 10.06"><defs><style>.cls-1{fill:#a56799;stroke:#a56799;stroke-miterlimit:10;}</style></defs><g id="Calque_2" data-name="Calque 2"><g id="Calque_1-2" data-name="Calque 1"><g id="Calque_2-2" data-name="Calque 2"><g id="Calque_1-2-2" data-name="Calque 1-2"><g id="Calque_2-2-2" data-name="Calque 2-2"><g id="Calque_1-2-2-2" data-name="Calque 1-2-2"><g id="Calque_2-2-2-2" data-name="Calque 2-2-2"><g id="Calque_1-2-2-2-2" data-name="Calque 1-2-2-2"><g id="Calque_2-2-2-2-2" data-name="Calque 2-2-2-2"><g id="Calque_1-2-2-2-2-2" data-name="Calque 1-2-2-2-2"><path class="cls-1" d="M.5,3.73c0-.1,31.74.8,72.2,0,14.71-.28,31.68-.82,51.14-1.94,8.14-.46,15-.91,20.06-1.28q6.39,1.91,13,3.22A154.34,154.34,0,0,0,177,6.33,115.94,115.94,0,0,0,156.94,7a85.87,85.87,0,0,0-13,2.56c-5.33-.33-12.93-.78-22.06-1.29-18.11-1-37.64-2-49.14-2.58C32.09,3.73.5,3.85.5,3.73Z"/></g></g></g></g></g></g></g></g></g></g></svg>