<svg xmlns="http://www.w3.org/2000/svg" xmlns:xlink="http://www.w3.org/1999/xlink" viewBox="0 0 177.03 9.8"><defs><style>.cls-1{stroke-miterlimit:10;fill:url(#Dégradé_sans_nom);stroke:url(#Dégradé_sans_nom-2);}</style><linearGradient id="Dégradé_sans_nom" x1="0.5" y1="6.08" x2="177" y2="6.08" gradientTransform="matrix(1, 0, 0, -1, 0, 10.98)" gradientUnits="userSpaceOnUse"><stop offset="0" stop-color="#fff"/><stop offset="0" stop-color="#6e4ccc"/></linearGradient><linearGradient id="Dégradé_sans_nom-2" x1="0" y1="6.08" x2="177.03" y2="6.08" xlink:href="#Dégradé_sans_nom"/></defs><g id="Calque_2" data-name="Calque 2"><g id="Calque_1-2" data-name="Calque 1"><g id="Calque_2-2" data-name="Calque 2"><g id="Calque_1-2-2" data-name="Calque 1-2"><g id="Calque_2-2-2" data-name="Calque 2-2"><g id="Calque_1-2-2-2" data-name="Calque 1-2-2"><path class="cls-1" d="M.5,3.65c0-.11,31.74.77,72.2,0,14.71-.28,31.68-.81,51.14-1.89,8.14-.45,15-.89,20.06-1.25q6.39,1.86,13,3.14A155.54,155.54,0,0,0,177,6.18a120,120,0,0,0-20.06.63,92.09,92.09,0,0,0-13,2.48C138.59,9,131,8.54,121.86,8c-18.11-1-37.64-2-49.14-2.51C32.09,3.65.5,3.76.5,3.65Z"/></g></g></g></g></g></g></svg>