<?xml version="1.0" encoding="utf-8"?>
<!-- Generator: Adobe Illustrator 24.1.0, SVG Export Plug-In . SVG Version: 6.00 Build 0)  -->
<svg version="1.1" id="Calque_1" xmlns="http://www.w3.org/2000/svg" xmlns:xlink="http://www.w3.org/1999/xlink" x="0px" y="0px"
	 viewBox="0 0 357.1 35.2" style="enable-background:new 0 0 357.1 35.2;" xml:space="preserve">
<style type="text/css">
	.st0{fill:#606060;}
</style>
<g id="Calque_2_2_">
	<g id="Calque_1-2_1_">
		<g id="Calque_2-2_1_">
			<g id="Calque_1-2-2_1_">
				<path class="st0" d="M16,15c16.8-1.1,33.5-3,49.6-5.6c4.3-0.8,8.6-1.5,12.8-2.3c4,2.1,9,3.6,14.4,4.5c6.9,1.1,9.3,0,20.8,0
					c9.4,0,9.9,0.8,22.4,1.1c6.4,0.2,12.8,0.2,19.2,0h112l57.6,2.3l-56,1.1c-22.2-0.3-45.1-0.3-68.8,0c-15.7,0.2-31.2,0.6-46.4,1.1
					c-7.4,0.6-14.9,1.1-22.4,1.2c-13.1,0.2-17.9-0.6-27.2,0c-9,0.6-17.8,2.1-25.6,4.4c-4.2-0.8-8.5-1.5-12.8-2.3
					C49.3,18,32.8,16,16,15z"/>
			</g>
		</g>
	</g>
</g>
</svg>
