<svg xmlns="http://www.w3.org/2000/svg" xmlns:xlink="http://www.w3.org/1999/xlink" viewBox="0 0 177.04 9.79"><defs><style>.cls-1{stroke-miterlimit:10;fill:url(#Dégradé_sans_nom);stroke:url(#Dégradé_sans_nom-2);}</style><linearGradient id="Dégradé_sans_nom" x1="0.03" y1="761.25" x2="176.53" y2="761.25" gradientTransform="translate(185.73 764.36) rotate(179.31)" gradientUnits="userSpaceOnUse"><stop offset="0" stop-color="#fff"/><stop offset="0" stop-color="#6e4ccc"/></linearGradient><linearGradient id="Dégradé_sans_nom-2" x1="-0.47" y1="761.25" x2="176.56" y2="761.25" xlink:href="#Dégradé_sans_nom"/></defs><g id="Calque_2" data-name="Calque 2"><g id="Calque_1-2" data-name="Calque 1"><g id="Calque_2-2" data-name="Calque 2"><g id="Calque_1-2-2" data-name="Calque 1-2"><g id="Calque_2-2-2" data-name="Calque 2-2"><g id="Calque_1-2-2-2" data-name="Calque 1-2-2"><g id="Calque_2-2-2-2" data-name="Calque 2-2-2"><g id="Calque_1-2-2-2-2" data-name="Calque 1-2-2-2"><path class="cls-1" d="M176.54,4.41c0,.11-31.75-.38-72.19.87-14.71.46-31.67,1.2-51.12,2.51-8.13.55-15,1.07-20,1.49q-6.4-1.78-13-3A156.2,156.2,0,0,0,0,4a119.91,119.91,0,0,0,20.05-.87A92,92,0,0,0,33,.5c5.36.23,13,.6,22.1,1,18.12.78,37.66,1.54,49.16,1.91C145,4.8,176.54,4.3,176.54,4.41Z"/></g></g></g></g></g></g></g></g></svg>