<?xml version="1.0" encoding="utf-8"?>
<!-- Generator: Adobe Illustrator 24.1.0, SVG Export Plug-In . SVG Version: 6.00 Build 0)  -->
<svg version="1.1" id="Calque_1" xmlns="http://www.w3.org/2000/svg" xmlns:xlink="http://www.w3.org/1999/xlink" x="0px" y="0px"
	 viewBox="0 0 177 8" style="enable-background:new 0 0 177 8;" xml:space="preserve">
<style type="text/css">
	.st0{fill:#C67412;stroke:#C67412;stroke-miterlimit:10;}
</style>
<g id="Calque_2_1_">
	<g id="Calque_1-2">
		<path class="st0" d="M0.5,3c0-0.1,31.7,0.6,72,0c14.7-0.2,31.6-0.6,51-1.5c8.1-0.4,14.9-0.7,20-1c3.8,0.9,8.1,1.8,13,2.5
			c6.6,1,13.3,1.7,20,2c-6.7-0.3-13.4-0.1-20,0.5c-4.4,0.4-8.7,1.1-13,2c-5.3-0.2-12.9-0.6-22-1c-18.1-0.8-37.5-1.6-49-2
			C32,3,0.5,3.1,0.5,3z"/>
	</g>
</g>
</svg>
