<svg xmlns="http://www.w3.org/2000/svg" xmlns:xlink="http://www.w3.org/1999/xlink" viewBox="0 0 177.03 10.04"><defs><style>.cls-1{stroke-miterlimit:10;fill:url(#Dégradé_sans_nom);stroke:url(#Dégradé_sans_nom-2);}</style><linearGradient id="Dégradé_sans_nom" x1="0.5" y1="107.99" x2="177" y2="107.99" gradientTransform="matrix(1, 0, 0, -1, 0, 113.01)" gradientUnits="userSpaceOnUse"><stop offset="0" stop-color="#fff"/><stop offset="0" stop-color="#a56799"/></linearGradient><linearGradient id="Dégradé_sans_nom-2" x1="0" y1="107.99" x2="177.03" y2="107.99" xlink:href="#Dégradé_sans_nom"/></defs><g id="Calque_2" data-name="Calque 2"><g id="Calque_1-2" data-name="Calque 1"><g id="Calque_2-2" data-name="Calque 2"><g id="Calque_1-2-2" data-name="Calque 1-2"><g id="Calque_2-2-2" data-name="Calque 2-2"><g id="Calque_1-2-2-2" data-name="Calque 1-2-2"><path class="cls-1" d="M.5,3.73c0-.1,31.74.8,72.2,0,14.71-.28,31.68-.82,51.14-1.94,8.14-.46,15-.91,20.06-1.28q6.39,1.91,13,3.22A150.53,150.53,0,0,0,177,6.33,117.86,117.86,0,0,0,156.94,7a88.17,88.17,0,0,0-13,2.56c-5.33-.33-12.93-.78-22.06-1.29-18.11-1-37.64-2-49.14-2.58C32.09,3.73.5,3.85.5,3.73Z"/></g></g></g></g></g></g></svg>