<svg xmlns="http://www.w3.org/2000/svg" viewBox="0 0 176.52 8.78"><defs><style>.cls-1{fill:#c67412;}</style></defs><g id="Calque_2" data-name="Calque 2"><g id="Calque_1-2" data-name="Calque 1"><g id="Calque_2-2" data-name="Calque 2"><g id="Calque_1-2-2" data-name="Calque 1-2"><g id="Calque_2-2-2" data-name="Calque 2-2"><g id="Calque_1-2-2-2" data-name="Calque 1-2-2"><g id="Calque_2-2-2-2" data-name="Calque 2-2-2"><g id="Calque_1-2-2-2-2" data-name="Calque 1-2-2-2"><path class="cls-1" d="M176.52,3.91c0,.11-31.75-.39-72.2.87C89.62,5.24,72.65,6,53.21,7.29c-8.13.55-15,1.07-20,1.49q-6.42-1.78-13-3A154.65,154.65,0,0,0,0,3.51a120,120,0,0,0,20.05-.87A92.3,92.3,0,0,0,33,0C38.37.23,46,.59,55.11,1c18.12.79,37.67,1.55,49.17,1.92C144.93,4.29,176.52,3.8,176.52,3.91Z"/></g></g></g></g></g></g></g></g></svg>