<svg xmlns="http://www.w3.org/2000/svg" viewBox="0 0 193.05 9.53"><defs><style>.cls-1{fill:#c67412;stroke:#c67412;stroke-miterlimit:10;}</style></defs><g id="Calque_2" data-name="Calque 2"><g id="Calque_1-2" data-name="Calque 1"><path class="cls-1" d="M0,4.77c9.69-.55,20.08-1.51,31-3,2.73-.38,5.4-.79,8-1.21A34.73,34.73,0,0,0,48,3c4.32.57,5.81,0,13,0,5.88,0,6.25.4,14,.6,5.27.14,9,.05,12,0,1.69,0,.25,0,29.17,0H157l36,1.22-35,.6q-20.81-.25-43,0Q100.21,5.57,86,6c-3.14.24-8,.54-14,.61-8.15.09-11.22-.32-17,0A85.78,85.78,0,0,0,39,9c-2.6-.43-5.27-.83-8-1.22C20.11,6.27,9.72,5.31,0,4.77Z"/></g></g></svg>