<svg xmlns="http://www.w3.org/2000/svg" viewBox="0 0 177.04 10.06"><defs><style>.cls-1{fill:#a56799;stroke:#a56799;stroke-miterlimit:10;}</style></defs><g id="Calque_2" data-name="Calque 2"><g id="Calque_1-2" data-name="Calque 1"><g id="Calque_2-2" data-name="Calque 2"><g id="Calque_1-2-2" data-name="Calque 1-2"><g id="Calque_2-2-2" data-name="Calque 2-2"><g id="Calque_1-2-2-2" data-name="Calque 1-2-2"><g id="Calque_2-2-2-2" data-name="Calque 2-2-2"><g id="Calque_1-2-2-2-2" data-name="Calque 1-2-2-2"><path class="cls-1" d="M176.54,5.32c0,.1-31.74-.57-72.2.51-14.7.39-31.67,1-51.12,2.3-8.14.52-15,1-20,1.42q-6.41-1.86-13-3.12A147.84,147.84,0,0,0,0,4a117.88,117.88,0,0,0,20-.81A88.14,88.14,0,0,0,33.06.5C38.4.8,46,1.19,55.13,1.64c18.12.87,37.66,1.73,49.16,2.23C145,5.55,176.54,5.2,176.54,5.32Z"/></g></g></g></g></g></g></g></g></svg>