<?xml version="1.0" encoding="utf-8"?>
<!-- Generator: Adobe Illustrator 24.1.0, SVG Export Plug-In . SVG Version: 6.00 Build 0)  -->
<svg version="1.1" id="Calque_1" xmlns="http://www.w3.org/2000/svg" xmlns:xlink="http://www.w3.org/1999/xlink" x="0px" y="0px"
	 viewBox="0 0 177 9.8" style="enable-background:new 0 0 177 9.8;" xml:space="preserve">
<style type="text/css">
	.st0{fill:#6E4CCC;}
</style>
<g id="Calque_2_1_">
	<g id="Calque_1-2">
		<g id="Calque_2-2">
			<g id="Calque_1-2-2">
				<g id="Calque_2-2-2">
					<g id="Calque_1-2-2-2">
						<path class="st0" d="M0.5,5.4c0-0.1,31.7,0.6,72.2-0.4c14.7-0.3,31.7-0.9,51.1-2.1c8.1-0.4,15-1,20-1.3
							c4.3,1.2,8.6,2.3,13,3.1c6.7,1.3,13.5,2.1,20.2,2.5c-6.7-0.4-13.4-0.1-20.1,0.7c-4.4,0.6-8.7,1.3-13,2.5
							c-5.4-0.2-12.9-0.7-22.1-1.2c-18-0.9-37.6-1.8-49.1-2.3C32.1,5.3,0.5,5.5,0.5,5.4z"/>
					</g>
				</g>
			</g>
		</g>
	</g>
</g>
</svg>
