<svg xmlns="http://www.w3.org/2000/svg" viewBox="0 0 498.42 19.6"><defs><style>.cls-1{fill:#3d1319;}</style></defs><g id="Calque_2" data-name="Calque 2"><g id="Calque_1-2" data-name="Calque 1"><path class="cls-1" d="M28.1,4.47C5.59,6.5.33,6.83.1,8.17c-.42,2.44,16,6.18,28,8.15a222.17,222.17,0,0,0,42,3c47-1.75,94-2,141-3.7,6.32-.23,34.85-1.25,72-1.48,46.7-.29,115,.62,185-2.23,11.76-.47,29.93-1.32,30-3,.08-1.85-22.92-3.77-31-4.44-76-6.34-182.66-3.58-259-2.22-54.75,1-82.12,1.45-92,.74C110,2.55,79.66.23,52.1,2.25,47.85,2.56,49,2.58,28.1,4.47Z"/><path class="cls-1" d="M28.11,4.52,12.55,6c-2.59.26-5.18.51-7.76.85A20,20,0,0,0,1,7.56a1.44,1.44,0,0,0-.73.49c-.15.24,0,.54.21.76a6.15,6.15,0,0,0,1.6,1,47.68,47.68,0,0,0,7.38,2.46c2.52.67,5,1.25,7.6,1.8q7.62,1.62,15.36,2.73a232.89,232.89,0,0,0,31.1,2.31c5.2.06,10.4-.26,15.6-.43l15.61-.5C136.37,17,178,16.4,219.64,14.91q31.22-.95,62.47-1.09c20.82-.09,41.65,0,62.47,0,41.65,0,83.3-.56,124.91-2.29,5.2-.22,10.4-.47,15.59-.83,2.59-.19,5.18-.4,7.76-.72a29.85,29.85,0,0,0,3.8-.65,5.55,5.55,0,0,0,.87-.29l.17-.1c.05,0,.06-.06.1-.08s0,0,0,.06l0,0a5.54,5.54,0,0,0-1.67-.64,71.86,71.86,0,0,0-7.65-1.31c-2.58-.33-5.16-.61-7.75-.87q-7.77-.78-15.55-1.36c-20.76-1.62-41.56-2.48-62.37-3.05C361.11.57,319.46.9,277.82,1.5L215.36,2.58l-62.47.89c-10.42.09-20.83.22-31.25,0-2.6-.06-5.22-.2-7.81-.42s-5.19-.36-7.79-.51q-7.79-.46-15.59-.71C80,1.5,69.63,1.47,59.23,1.94c-2.6.1-5.2.29-7.79.45s-5.19.48-7.78.72Zm0-.1L43.65,3c2.59-.25,5.17-.54,7.77-.75s5.2-.38,7.8-.48c10.4-.52,20.83-.53,31.24-.25q7.8.21,15.61.65c2.6.14,5.2.31,7.79.48s5.19.34,7.79.39c10.4.19,20.82,0,31.23-.14C194.52,2.16,236.16,1.11,277.8.53s83.31-.9,125,.21c20.82.56,41.64,1.5,62.41,3.2,5.19.4,10.38.88,15.56,1.41,2.59.27,5.18.56,7.77.91a71,71,0,0,1,7.73,1.34,5.8,5.8,0,0,1,1.93.79.82.82,0,0,1,.24.34.66.66,0,0,1-.1.53,1.38,1.38,0,0,1-.26.23l-.25.14a5.75,5.75,0,0,1-1,.33,32.58,32.58,0,0,1-3.89.66c-2.59.31-5.19.51-7.79.69-5.2.34-10.4.57-15.61.78-20.81.83-41.63,1.33-62.45,1.64s-41.65.38-62.48.48-41.65,0-62.47.18-41.64.59-62.45,1.27S178,17.11,157.21,17.49s-41.64.75-62.46,1.29l-15.61.44c-5.2.14-10.41.44-15.62.37a233.52,233.52,0,0,1-31.15-2.44Q24.65,16,17,14.36c-2.55-.56-5.08-1.15-7.6-1.83A47.49,47.49,0,0,1,2,10,6.24,6.24,0,0,1,.33,9,.85.85,0,0,1,.08,8a1.57,1.57,0,0,1,.84-.59,20.49,20.49,0,0,1,3.85-.76C7.35,6.28,10,6,12.54,5.8Z"/></g></g></svg>