<svg xmlns="http://www.w3.org/2000/svg" viewBox="0 0 501.59 18.16"><defs><style>.cls-1{fill:#3d1319;stroke:#3d1319;stroke-miterlimit:10;}</style></defs><g id="Calque_2" data-name="Calque 2"><g id="Calque_1-2" data-name="Calque 1"><path class="cls-1" d="M.09,9.17C5.45,8.21,12.8,7,21.61,5.84c0,0,19-2.5,38.48-3.52C92.34.64,132.61,3.67,153.57,4.71s17.26-.17,97.25-2.25C307.26,1,349,0,400,.82c20.58.34,100.81,1.71,101.07,6.3.17,3.12-36.93,6.45-49,7.53-36.1,3.23-61.29,2.9-105,2.74-32-.12-64,0-96,0-42.47,0-67.61-.07-95,0-25.93.06-34.77.24-58.75.27-29.2,0-52.93-.13-68.25-.27"/></g></g></svg>