<svg xmlns="http://www.w3.org/2000/svg" viewBox="0 0 221.15 8.56"><defs><style>.cls-1{fill:#41963c;stroke:#41963c;stroke-miterlimit:10;}</style></defs><g id="Calque_2" data-name="Calque 2"><g id="Calque_1-2" data-name="Calque 1"><path class="cls-1" d="M218.62,1.91c-7.2.63-14.88,1.12-23,1.37a405.8,405.8,0,0,1-48-1.37,153,153,0,0,1-19,0c-7.58-.48-9-1.16-16-1.37-5.74-.17-8.18.19-18,.69-4.43.22-11,.51-19,.68a155.19,155.19,0,0,1-18,1.37c-10.6.18-16.45-.8-26.86-1.37a253.74,253.74,0,0,0-27.14,0l12,2.73-12,2.05c9.56,0,17.87,0,24.63,0,12,.06,16.18.16,23.09,0C60.82,6.48,69,5.92,75.62,5.32c11.11-.2,22.79-.22,35,0,12.59.24,24.61.72,36,1.37,9.83-.39,18-.24,23.87,0,11.15.45,15.72,1.28,25.13,1.37a169.53,169.53,0,0,0,23-1.37c.2-.08,1.77-.75,2-2.05C220.81,3.58,220,2.5,218.62,1.91Z"/></g></g></svg>