<?xml version="1.0" encoding="utf-8"?>
<!-- Generator: Adobe Illustrator 24.1.0, SVG Export Plug-In . SVG Version: 6.00 Build 0)  -->
<svg version="1.1" id="Calque_1" xmlns="http://www.w3.org/2000/svg" xmlns:xlink="http://www.w3.org/1999/xlink" x="0px" y="0px"
	 viewBox="0 0 221.1 8.6" style="enable-background:new 0 0 221.1 8.6;" xml:space="preserve">
<style type="text/css">
	.st0{fill:url(#SVGID_1_);stroke:url(#SVGID_2_);stroke-miterlimit:10;}
</style>
<g id="Calque_2_1_">
	<g id="Calque_1-2">
		<linearGradient id="SVGID_1_" gradientUnits="userSpaceOnUse" x1="4.1225" y1="4.28" x2="221.15" y2="4.28">
			<stop  offset="0" style="stop-color:#B2F478"/>
			<stop  offset="0.1445" style="stop-color:#B2F478"/>
			<stop  offset="0.2782" style="stop-color:#489B40"/>
		</linearGradient>
		<linearGradient id="SVGID_2_" gradientUnits="userSpaceOnUse" x1="0.5165" y1="4.28" x2="221.65" y2="4.28">
			<stop  offset="0" style="stop-color:#B2F478"/>
			<stop  offset="6.203689e-02" style="stop-color:#B2F478"/>
			<stop  offset="0.1444" style="stop-color:#489B40"/>
		</linearGradient>
		<path class="st0" d="M219.1,1.9c-7.2,0.6-14.9,1.1-23,1.4c-16,0.5-32,0-48-1.4c-6.3,0.4-12.7,0.4-19,0c-7.6-0.5-9-1.2-16-1.4
			c-5.7-0.2-8.2,0.2-18,0.7c-4.4,0.2-11,0.5-19,0.7c-6,0.8-12,1.3-18,1.4C47.5,3.5,41.7,2.5,31.3,1.9c-9-0.5-18.1-0.5-27.1,0l12,2.7
			l-12,2.1c9.6,0,17.9,0,24.6,0c12,0.1,16.2,0.2,23.1,0c9.5-0.2,17.7-0.8,24.3-1.4c11.1-0.2,22.8-0.2,35,0c12.6,0.2,24.6,0.7,36,1.4
			c9.8-0.4,18-0.2,23.9,0c11.1,0.4,15.7,1.3,25.1,1.4c7.7,0.1,15.4-0.4,23-1.4c0.2-0.1,1.8-0.8,2-2.1C221.3,3.6,220.5,2.5,219.1,1.9
			z"/>
	</g>
</g>
</svg>
