<svg xmlns="http://www.w3.org/2000/svg" xmlns:xlink="http://www.w3.org/1999/xlink" viewBox="0 0 224.28 10.39"><defs><style>.cls-1{stroke-miterlimit:10;fill:url(#Dégradé_sans_nom);stroke:url(#Dégradé_sans_nom_2);}</style><linearGradient id="Dégradé_sans_nom" x1="0.5" y1="547.47" x2="221.6" y2="547.47" gradientTransform="translate(0 -542.28)" gradientUnits="userSpaceOnUse"><stop offset="0"/><stop offset="0" stop-color="#40923b"/><stop offset="0.69" stop-color="#41953c"/><stop offset="0.85" stop-color="#b4d172"/></linearGradient><linearGradient id="Dégradé_sans_nom_2" y1="547.47" x2="224.28" y2="547.47" gradientTransform="translate(0 -542.28)" gradientUnits="userSpaceOnUse"><stop offset="0"/><stop offset="0" stop-color="#40923b"/><stop offset="0.65" stop-color="#41953c"/><stop offset="0.84" stop-color="#b4d172"/></linearGradient></defs><g id="Calque_2" data-name="Calque 2"><g id="Calque_1-2" data-name="Calque 1"><g id="Calque_2-2" data-name="Calque 2"><g id="Calque_1-2-2" data-name="Calque 1-2"><g id="Calque_2-2-2" data-name="Calque 2-2"><g id="Calque_1-2-2-2" data-name="Calque 1-2-2"><path class="cls-1" d="M8.23,2.66c4.32.1,11.34.2,20,0,18.08-.4,18.65-1.5,28.9-1,10.77.6,15.32,2.1,22.23,1,1.09-.2,5.7-.9,12-1.6C92.69,1,94.19.86,96,.66c5.47-.3,7.14-.1,17.79,0,17.5.2,16-.4,23.32,0,14.45.8,14,2.2,22.22,2,10.42-.4,13.3-2.3,24.64-2,8.41.3,8.87.9,15.38,1,7.94.1,9.73-1.1,15.54,0a32.32,32.32,0,0,1,6.68,2l-14.45,2,14.45,2.9a68,68,0,0,1-10,1,84.63,84.63,0,0,1-13.3-1c-5.52-.6-9.61-.7-17.79-1-9-.3-11.17,0-20,0-5.46,0-13.47-.2-23.31-1a181.49,181.49,0,0,1-21.13,1c-13.3-.2-14.45-1.8-23.32-1-12,1.2-14.1,4.5-22.22,2.9-3.4-.7-6.57-1.9-12.21-2a37.51,37.51,0,0,0-8.86,1c-9-.4-18.66-.4-28.91,0-5.35.2-10.59.6-15.54,1C1.78,8.56.11,6.16.58,4.56S4.43,1.26,8.23,2.66Z"/></g></g></g></g></g></g></svg>