<svg xmlns="http://www.w3.org/2000/svg" viewBox="0 0 202.93 7.68"><defs><style>.cls-1{fill:#41963c;stroke:#41963c;stroke-miterlimit:10;}</style></defs><g id="Calque_2" data-name="Calque 2"><g id="Calque_1-2" data-name="Calque 1"><path class="cls-1" d="M7.57,2c3.9.07,10.2.14,18,0,16.29-.29,16.81-1.08,26-.7,9.68.4,13.79,1.48,20,.7,1-.13,5.11-.64,10.82-1.12C83.6.8,84.94.71,86.57.63c4.91-.24,6.45-.08,16,0,15.77.12,14.36-.3,21,0,13,.59,12.62,1.59,20,1.39,9.37-.26,12-1.65,22.17-1.39,7.58.19,8,.64,13.83.69,7.15.07,8.77-.78,14,0a38.88,38.88,0,0,1,6,1.39l-13,1.4,13,2.08a72.27,72.27,0,0,1-9,.7,106.06,106.06,0,0,1-12-.7c-5-.41-8.66-.5-16-.69-8.11-.21-10.07,0-18,0-4.91,0-12.11-.16-21-.7-4.26.37-10.87.8-19,.7-12-.16-13-1.3-21-.7-10.84.82-12.69,3.2-20,2.09-3.08-.47-5.91-1.37-11-1.39a44.34,44.34,0,0,0-8,.69c-8.09-.26-16.78-.29-26,0q-7.27.24-14,.7C1.68,6.22.16,4.51.57,3.41S4.14,1.06,7.57,2Z"/></g></g></svg>